<?xml version="1.0" encoding="UTF-8"?>
<svg id="MW_LOGO_8_copy" data-name="MW LOGO 8 copy" xmlns="http://www.w3.org/2000/svg" viewBox="0 0 2770.71 2984">
  <defs>
    <style>
      .cls-1 {
        fill: #178862;
      }
    </style>
  </defs>
  <path class="cls-1" d="m2497.28,1515.39c85.47-197.24,177.94-418.97,273.43-657.99l-210.62,294.01c39.08-94.54,79-192.72,119.47-294.01l-182.28,254.45v-29.25c29.98-73.12,60.4-148.26,91.14-225.2l-91.14,127.23V0l-91.14,65.68V0l-91.15,65.69V0l-929.64,669.94L455.71,0v65.68L364.57,0v65.69L273.42,0v984.63l-91.14-127.23c30.74,76.94,61.16,152.08,91.14,225.2v29.25l-182.28-254.45c40.46,101.28,80.38,199.46,119.46,293.98L0,857.4c95.49,239.02,187.95,460.74,273.42,657.97v487.12L0,2221.23h601.54c68.4,131.77,116.88,206.02,136.7,215.93,36.46,18.23,143.2,47.93,164.05,54.68l118.48,492.16,38.72-217.74,52.42,217.74,38.72-217.74,52.42,217.74,182.3-1025.11,182.3,1025.11,52.42-217.74,38.72,217.74,52.42-217.77,38.73,217.77,118.48-492.16c20.85-6.75,127.59-36.45,164.05-54.68,19.83-9.91,68.31-84.16,136.7-215.93h601.53l-273.42-218.74v-487.1Zm-1713.46,181.72v-937.03l391.91,268.15v418.27h-.02l.02.02-152.19,585.23-239.72-334.63Zm811.16-250.62v-418.27l391.9-268.14v937.03l-239.71,334.62-152.19-585.22.02-.02h-.02Z"/>
</svg>