<?xml version="1.0" encoding="UTF-8"?>
<svg id="MW_LOGO_8" data-name="MW LOGO 8" xmlns="http://www.w3.org/2000/svg" viewBox="0 0 2770.71 2984">
  <defs>
    <style>
      .cls-1 {
        fill: #fff;
      }

      .cls-2 {
        fill: #0fc;
      }

      .cls-3 {
        fill: #6f0;
      }
    </style>
  </defs>
  <path class="cls-3" d="m273.42,0v1239.08L0,857.4c95.49,239.02,187.95,460.74,273.42,657.97v487.12L0,2221.23h601.53c68.4,131.77,116.88,206.02,136.71,215.93,36.46,18.23,143.2,47.93,164.05,54.68l118.48,492.16,273.42-1537.48h.02v-710.9L273.42,0Zm701.57,2218.43l-373.46-521.33V635.36l574.2,392.87v418.27h-.02l.02.02-200.74,771.91Z"/>
  <g id="MW_LOGO_copy_12-2" data-name="MW LOGO copy 12-2">
    <polygon class="cls-3" points="2314.99 0 2314.99 2002.49 2588.42 2221.23 1986.88 2221.23 1986.88 635.36 1412.69 1028.23 1412.69 1446.52 1294.21 1446.52 1294.21 1109.3 1294.21 735.62 2314.99 0"/>
    <polygon class="cls-2" points="455.71 0 455.71 2002.49 182.28 2221.23 783.82 2221.23 783.82 635.36 1358.01 1028.23 1358.01 1446.52 1476.49 1446.52 1476.49 1109.3 1476.49 735.62 455.71 0"/>
    <path class="cls-2" d="m2497.28,2002.49v-487.1c85.47-197.24,177.94-418.97,273.43-657.99l-273.43,381.69V0l-1020.79,735.62v710.9h.03l273.42,1537.48,118.48-492.16c20.85-6.75,127.59-36.45,164.05-54.68,19.83-9.91,68.31-84.16,136.7-215.93h601.53l-273.42-218.74Zm-701.56,215.94l-200.74-771.91.02-.02h-.02v-418.27l574.19-392.87v1061.76l-373.45,521.31Z"/>
    <path class="cls-2" d="m1358.01,1446.52l-200.74,771.91L182.28,857.4c241.11,603.52,462.94,1096.81,601.53,1363.82,68.4,131.78,116.88,206.03,136.71,215.94,36.46,18.23,143.2,47.93,164.05,54.68l118.48,492.16,273.42-1537.5h-118.48l.02.02Z"/>
    <path class="cls-3" d="m1412.69,1446.52l200.74,771.91,974.99-1361.03c-241.11,603.52-462.94,1096.81-601.53,1363.82-68.4,131.78-116.88,206.03-136.71,215.94-36.46,18.23-143.2,47.93-164.05,54.68l-118.48,492.16-273.42-1537.5h118.48l-.02.02Z"/>
  </g>
  <path class="cls-1" d="m2406.14,1515.37c85.47-197.23,177.93-418.95,273.42-657.97l-273.42,381.68V0l-1020.79,735.62L364.57,0v1239.09L91.14,857.4c95.49,239.03,187.96,460.76,273.43,657.99v487.1l-273.43,218.74h601.54c68.4,131.77,116.88,206.02,136.7,215.93,36.46,18.23,143.2,47.93,164.05,54.68l118.48,492.16,273.42-1537.48h.05l273.42,1537.48,118.48-492.16c20.85-6.75,127.59-36.45,164.05-54.68,19.83-9.91,68.31-84.16,136.71-215.94h0s601.53.01,601.53.01l-273.42-218.74v-487.12Zm-1340.01,703.06l-373.45-521.31V635.36l574.19,392.87v418.27h-.02l.02.02-200.74,771.91Zm638.44,0l-200.74-771.91.02-.02h-.02v-418.27l574.2-392.87v1061.74l-373.46,521.33Z"/>
</svg>